<svg xmlns="http://www.w3.org/2000/svg" class="displayNone">
  <symbol id="facebook" viewBox="0 0 448 512">
    <title id="facebook-title">Facebook</title>
    <path
      d="M448 56.7v398.5c0 13.7-11.1 24.7-24.7 24.7H309.1V306.5h58.2l8.7-67.6h-67v-43.2c0-19.6 5.4-32.9 33.5-32.9h35.8v-60.5c-6.2-.8-27.4-2.7-52.2-2.7-51.6 0-87 31.5-87 89.4v49.9h-58.4v67.6h58.4V480H24.7C11.1 480 0 468.9 0 455.3V56.7C0 43.1 11.1 32 24.7 32h398.5c13.7 0 24.8 11.1 24.8 24.7z">
    </path>
  </symbol>
  <symbol id="facebook-f" viewBox="0 0 264 512">
    <title id="facebook-f-title">Facebook F</title>
    <path
      d="M76.7 512V283H0v-91h76.7v-71.7C76.7 42.4 124.3 0 193.8 0c33.3 0 61.9 2.5 70.2 3.6V85h-48.2c-37.8 0-45.1 18-45.1 44.3V192H256l-11.7 91h-73.6v229">
    </path>
  </symbol>
  <symbol id="linkedin-in" viewBox="0 0 448 512">
    <title id="linkedin-in-title">LinkedIn In</title>
    <path
      d="M100.3 480H7.4V180.9h92.9V480zM53.8 140.1C24.1 140.1 0 115.5 0 85.8 0 56.1 24.1 32 53.8 32c29.7 0 53.8 24.1 53.8 53.8 0 29.7-24.1 54.3-53.8 54.3zM448 480h-92.7V334.4c0-34.7-.7-79.2-48.3-79.2-48.3 0-55.7 37.7-55.7 76.7V480h-92.8V180.9h89.1v40.8h1.3c12.4-23.5 42.7-48.3 87.9-48.3 94 0 111.3 61.9 111.3 142.3V480z">
    </path>
  </symbol>
  <symbol id="linkedin" viewBox="0 0 448 512">
    <path
      d="M416 32H31.9C14.3 32 0 46.5 0 64.3v383.4C0 465.5 14.3 480 31.9 480H416c17.6 0 32-14.5 32-32.3V64.3c0-17.8-14.4-32.3-32-32.3zM135.4 416H69V202.2h66.5V416zm-33.2-243c-21.3 0-38.5-17.3-38.5-38.5S80.9 96 102.2 96c21.2 0 38.5 17.3 38.5 38.5 0 21.3-17.2 38.5-38.5 38.5zm282.1 243h-66.4V312c0-24.8-.5-56.7-34.5-56.7-34.6 0-39.9 27-39.9 54.9V416h-66.4V202.2h63.7v29.2h.9c8.9-16.8 30.6-34.5 62.9-34.5 67.2 0 79.7 44.3 79.7 101.9V416z">
    </path>
  </symbol>
  <symbol id="phone" viewBox="0 0 512 512">
    <title id="phone-title">Phone</title>
    <path
      d="M493.397 24.615l-104-23.997c-11.314-2.611-22.879 3.252-27.456 13.931l-48 111.997a24 24 0 0 0 6.862 28.029l60.617 49.596c-35.973 76.675-98.938 140.508-177.249 177.248l-49.596-60.616a24 24 0 0 0-28.029-6.862l-111.997 48C3.873 366.516-1.994 378.08.618 389.397l23.997 104C27.109 504.204 36.748 512 48 512c256.087 0 464-207.532 464-464 0-11.176-7.714-20.873-18.603-23.385z">
    </path>
  </symbol>
  <symbol id="envelope" viewBox="0 0 512 512">
    <path
      d="M502.3 190.8c3.9-3.1 9.7-.2 9.7 4.7V400c0 26.5-21.5 48-48 48H48c-26.5 0-48-21.5-48-48V195.6c0-5 5.7-7.8 9.7-4.7 22.4 17.4 52.1 39.5 154.1 113.6 21.1 15.4 56.7 47.8 92.2 47.6 35.7.3 72-32.8 92.3-47.6 102-74.1 131.6-96.3 154-113.7zM256 320c23.2.4 56.6-29.2 73.4-41.4 132.7-96.3 142.8-104.7 173.4-128.7 5.8-4.5 9.2-11.5 9.2-18.9v-19c0-26.5-21.5-48-48-48H48C21.5 64 0 85.5 0 112v19c0 7.4 3.4 14.3 9.2 18.9 30.6 23.9 40.7 32.4 173.4 128.7 16.8 12.2 50.2 41.8 73.4 41.4z">
    </path>
  </symbol>
  <symbol id="caret-down" viewBox="0 0 320 512">
    <title id="caret-down-title">Caret Down</title>
    <path
      d="M31.3 192h257.3c17.8 0 26.7 21.5 14.1 34.1L174.1 354.8c-7.8 7.8-20.5 7.8-28.3 0L17.2 226.1C4.6 213.5 13.5 192 31.3 192z">
    </path>
  </symbol>
  <symbol id="bars" viewBox="0 0 448 512">
    <title id="bars-title">Bars</title>
    <path id="bars__top-bar"
      d="m 16,132 h 416 c 8.837,0 16,-7.163 16,-16 V 76 c 0,-8.837 -7.163,-16 -16,-16 H 16 C 7.163,60 0,67.163 0,76 v 40 c 0,8.837 7.163,16 16,16 z" />
    <path id="bars__middle-bar"
      d="m 16,292 h 416 c 8.837,0 16,-7.163 16,-16 v -40 c 0,-8.837 -7.163,-16 -16,-16 H 16 c -8.837,0 -16,7.163 -16,16 v 40 c 0,8.837 7.163,16 16,16 z" />
    <path id="bars__bottom-bar"
      d="m 16,452 h 416 c 8.837,0 16,-7.163 16,-16 v -40 c 0,-8.837 -7.163,-16 -16,-16 H 16 c -8.837,0 -16,7.163 -16,16 v 40 c 0,8.837 7.163,16 16,16 z" />
  </symbol>
  <symbol id="check" viewBox="0 0 512 512">
    <title id="check-title">Check</title>
    <path
      d="M173.898 439.404l-166.4-166.4c-9.997-9.997-9.997-26.206 0-36.204l36.203-36.204c9.997-9.998 26.207-9.998 36.204 0L192 312.69 432.095 72.596c9.997-9.997 26.207-9.997 36.204 0l36.203 36.204c9.997 9.997 9.997 26.206 0 36.204l-294.4 294.401c-9.998 9.997-26.207 9.997-36.204-.001z">
    </path>
  </symbol>
  <symbol id="file-alt" viewBox="0 0 384 512">
    <title id="file-alt-title">Alternate File</title>
    <path
      d="M224 136V0H24C10.7 0 0 10.7 0 24v464c0 13.3 10.7 24 24 24h336c13.3 0 24-10.7 24-24V160H248c-13.2 0-24-10.8-24-24zm64 236c0 6.6-5.4 12-12 12H108c-6.6 0-12-5.4-12-12v-8c0-6.6 5.4-12 12-12h168c6.6 0 12 5.4 12 12v8zm0-64c0 6.6-5.4 12-12 12H108c-6.6 0-12-5.4-12-12v-8c0-6.6 5.4-12 12-12h168c6.6 0 12 5.4 12 12v8zm0-72v8c0 6.6-5.4 12-12 12H108c-6.6 0-12-5.4-12-12v-8c0-6.6 5.4-12 12-12h168c6.6 0 12 5.4 12 12zm96-114.1v6.1H256V0h6.1c6.4 0 12.5 2.5 17 7l97.9 98c4.5 4.5 7 10.6 7 16.9z">
    </path>
  </symbol>
  <symbol id="align-left" viewBox="0 0 448 512">
    <title id="align-left-title">align-left</title>
    <path
      d="M288 44v40c0 8.837-7.163 16-16 16H16c-8.837 0-16-7.163-16-16V44c0-8.837 7.163-16 16-16h256c8.837 0 16 7.163 16 16zM0 172v40c0 8.837 7.163 16 16 16h416c8.837 0 16-7.163 16-16v-40c0-8.837-7.163-16-16-16H16c-8.837 0-16 7.163-16 16zm16 312h416c8.837 0 16-7.163 16-16v-40c0-8.837-7.163-16-16-16H16c-8.837 0-16 7.163-16 16v40c0 8.837 7.163 16 16 16zm256-200H16c-8.837 0-16 7.163-16 16v40c0 8.837 7.163 16 16 16h256c8.837 0 16-7.163 16-16v-40c0-8.837-7.163-16-16-16z">
    </path>
  </symbol>
  <symbol id="align-right" viewBox="0 0 448 512">
    <title id="align-right-title">align-right</title>
    <path
      d="M160 84V44c0-8.837 7.163-16 16-16h256c8.837 0 16 7.163 16 16v40c0 8.837-7.163 16-16 16H176c-8.837 0-16-7.163-16-16zM16 228h416c8.837 0 16-7.163 16-16v-40c0-8.837-7.163-16-16-16H16c-8.837 0-16 7.163-16 16v40c0 8.837 7.163 16 16 16zm0 256h416c8.837 0 16-7.163 16-16v-40c0-8.837-7.163-16-16-16H16c-8.837 0-16 7.163-16 16v40c0 8.837 7.163 16 16 16zm160-128h256c8.837 0 16-7.163 16-16v-40c0-8.837-7.163-16-16-16H176c-8.837 0-16 7.163-16 16v40c0 8.837 7.163 16 16 16z">
    </path>
  </symbol>
  <symbol id="arrow-down" viewBox="0 0 448 512">
    <title id="arrow-down-title">arrow-down</title>
    <path
      d="M413.1 222.5l22.2 22.2c9.4 9.4 9.4 24.6 0 33.9L241 473c-9.4 9.4-24.6 9.4-33.9 0L12.7 278.6c-9.4-9.4-9.4-24.6 0-33.9l22.2-22.2c9.5-9.5 25-9.3 34.3.4L184 343.4V56c0-13.3 10.7-24 24-24h32c13.3 0 24 10.7 24 24v287.4l114.8-120.5c9.3-9.8 24.8-10 34.3-.4z">
    </path>
  </symbol>
  <symbol id="star" viewBox="0 0 576 512">
    <title id="star-title">Star</title>
    <path
      d="M528.1 171.5L382 150.2 316.7 17.8c-11.7-23.6-45.6-23.9-57.4 0L194 150.2 47.9 171.5c-26.2 3.8-36.7 36.1-17.7 54.6l105.7 103-25 145.5c-4.5 26.3 23.2 46 46.4 33.7L288 439.6l130.7 68.7c23.2 12.2 50.9-7.4 46.4-33.7l-25-145.5 105.7-103c19-18.5 8.5-50.8-17.7-54.6zM388.6 312.3l23.7 138.4L288 385.4l-124.3 65.3 23.7-138.4-100.6-98 139-20.2 62.2-126 62.2 126 139 20.2-100.6 98z">
    </path>
  </symbol>
  <symbol id="play" viewBox="0 0 100 100">
    <path style="stroke: none" d="M 38,33 L 72,50 L 38,67 z">
    </path>
    <circle style="fill: none" cx="50" cy="50" r="45">
    </circle>
  </symbol>
  <symbol id="whatsApp_bubble" viewBox="0 0 150 150">
    <path
      d="m 56.768909,148.04373 c -4.124478,-1.06077 -11.036383,-3.66633 -15.359798,-5.79015 l -7.860753,-3.86149 -13.3886,3.51711 c -7.363734,1.93442 -13.6245605,3.28188 -13.912958,2.99438 -0.2883785,-0.28747 1.1001132,-6.45098 3.0855674,-13.69662 l 3.6099136,-13.17388 -3.4600058,-6.6525 C 4.630716,102.05253 2.0860568,94.033394 0.7125698,83.74405 -0.81464222,72.30308 0.06848782,63.39967 3.7936396,52.681788 14.131712,22.937394 36.742088,4.1494554 66.547849,0.536585 90.221725,-2.3330145 113.23721,6.39057 130.30679,24.7032 c 18.25505,19.584412 24.36889,47.859488 16.02195,74.097599 -3.61308,11.357511 -8.85429,19.655701 -18.62573,29.489361 -7.45474,7.50221 -9.89938,9.25574 -18.99756,13.62686 -5.74302,2.75917 -13.680268,5.72508 -17.638345,6.5909 -9.857879,2.15641 -24.900301,1.95284 -34.298196,-0.46419 z m 54.540921,-33.38825 c 6.28037,-3.89292 8.36215,-6.89111 9.10057,-13.10678 l 0.6112,-5.144677 -10.111,-5.058319 c -5.56105,-2.782069 -10.951816,-5.058308 -11.979487,-5.058308 -1.066366,0 -3.752334,2.353546 -6.256703,5.482364 -2.81546,3.517473 -5.141083,5.482359 -6.488881,5.482359 -3.754753,0 -14.395801,-6.06497 -20.458051,-11.660269 -6.954024,-6.418367 -12.962079,-14.251586 -12.948356,-16.88188 0.0053,-1.023027 1.580133,-3.829534 3.499548,-6.236689 1.919422,-2.407158 3.489853,-5.347755 3.489853,-6.534652 0,-2.592616 -6.653071,-19.465085 -8.378686,-21.248712 -2.003884,-2.071241 -11.316791,-1.813972 -13.748371,0.379798 -3.310461,2.986704 -6.699876,9.463782 -7.919786,15.134502 -0.975781,4.535928 -0.849356,6.149544 0.942635,12.031124 3.665069,12.029284 18.044455,31.267022 30.28001,40.510669 7.059658,5.3334 19.477783,11.50628 27.820484,13.82921 8.461397,2.35597 16.791431,1.64665 22.545021,-1.91974 z" />
  </symbol>
  <symbol id="whatsApp_phone" viewBox="0 0 150 150">
    <path
      d="m 45.751919,33.27512 c -3.196777,-0.06123 -6.741626,0.560927 -8.109391,1.79492 -3.310465,2.986704 -6.700031,9.464047 -7.919933,15.134766 -0.975782,4.535929 -0.850585,6.147716 0.941399,12.029295 3.665068,12.029284 18.045759,31.268077 30.281313,40.511719 7.059666,5.33341 19.477674,11.50715 27.820371,13.83007 8.461398,2.35598 16.791382,1.64648 22.544972,-1.91991 6.28037,-3.89292 8.3612,-6.89176 9.09963,-13.10742 l 0.61132,-5.144537 -10.11134,-5.058595 c -5.56105,-2.782068 -10.950871,-5.058591 -11.978542,-5.058591 -1.066362,0 -3.753457,2.353602 -6.257822,5.48242 -2.815467,3.517474 -5.140501,5.482424 -6.488295,5.482424 -3.754757,0 -14.39483,-6.064857 -20.457072,-11.660156 C 58.774505,79.173157 52.765553,71.34096 52.779281,68.710666 c 0.0049,-1.023028 1.580594,-3.831126 3.500008,-6.238281 1.919415,-2.407158 3.490239,-5.346307 3.490239,-6.533204 0,-2.592616 -6.653305,-19.466373 -8.378928,-21.25 -0.876693,-0.906168 -3.152299,-1.366451 -5.638681,-1.414061 z" />
  </symbol>
  <symbol id="discord" viewBox="0 0 71 55">
    <path
      d="M60.1045 4.8978C55.5792 2.8214 50.7265 1.2916 45.6527 0.41542C45.5603 0.39851 45.468 0.440769 45.4204 0.525289C44.7963 1.6353 44.105 3.0834 43.6209 4.2216C38.1637 3.4046 32.7345 3.4046 27.3892 4.2216C26.905 3.0581 26.1886 1.6353 25.5617 0.525289C25.5141 0.443589 25.4218 0.40133 25.3294 0.41542C20.2584 1.2888 15.4057 2.8186 10.8776 4.8978C10.8384 4.9147 10.8048 4.9429 10.7825 4.9795C1.57795 18.7309 -0.943561 32.1443 0.293408 45.3914C0.299005 45.4562 0.335386 45.5182 0.385761 45.5576C6.45866 50.0174 12.3413 52.7249 18.1147 54.5195C18.2071 54.5477 18.305 54.5139 18.3638 54.4378C19.7295 52.5728 20.9469 50.6063 21.9907 48.5383C22.0523 48.4172 21.9935 48.2735 21.8676 48.2256C19.9366 47.4931 18.0979 46.6 16.3292 45.5858C16.1893 45.5041 16.1781 45.304 16.3068 45.2082C16.679 44.9293 17.0513 44.6391 17.4067 44.3461C17.471 44.2926 17.5606 44.2813 17.6362 44.3151C29.2558 49.6202 41.8354 49.6202 53.3179 44.3151C53.3935 44.2785 53.4831 44.2898 53.5502 44.3433C53.9057 44.6363 54.2779 44.9293 54.6529 45.2082C54.7816 45.304 54.7732 45.5041 54.6333 45.5858C52.8646 46.6197 51.0259 47.4931 49.0921 48.2228C48.9662 48.2707 48.9102 48.4172 48.9718 48.5383C50.038 50.6034 51.2554 52.5699 52.5959 54.435C52.6519 54.5139 52.7526 54.5477 52.845 54.5195C58.6464 52.7249 64.529 50.0174 70.6019 45.5576C70.6551 45.5182 70.6887 45.459 70.6943 45.3942C72.1747 30.0791 68.2147 16.7757 60.1968 4.9823C60.1772 4.9429 60.1437 4.9147 60.1045 4.8978ZM23.7259 37.3253C20.2276 37.3253 17.3451 34.1136 17.3451 30.1693C17.3451 26.225 20.1717 23.0133 23.7259 23.0133C27.308 23.0133 30.1626 26.2532 30.1066 30.1693C30.1066 34.1136 27.28 37.3253 23.7259 37.3253ZM47.3178 37.3253C43.8196 37.3253 40.9371 34.1136 40.9371 30.1693C40.9371 26.225 43.7636 23.0133 47.3178 23.0133C50.9 23.0133 53.7545 26.2532 53.6986 30.1693C53.6986 34.1136 50.9 37.3253 47.3178 37.3253Z" />
  </symbol>
  <symbol id="fingerprint" viewBox="0 0 144 160">
    <path
      d="M 89.502972,159.02368 C 66.686128,151.26628 48.11218,129.55938 47.7407,104.84828 46.55375,95.7541 50.82919,86.4909 58.894622,81.99776 70.703188,74.41198 89.043119,78.94399 94.13873,92.59564 c 3.335699,6.3025 1.026622,14.72404 7.11613,19.72874 7.90319,8.6562 24.33896,5.9314 28.09853,-5.5017 3.22096,-12.47631 -1.88004,-25.69699 -9.02055,-35.88509 C 108.86662,55.15007 89.440909,45.31284 69.86482,46.50533 45.93338,46.42493 23.01107,63.51084 15.63684,86.23606 c -3.10243,11.69324 -1.96558,24.21762 0.61705,35.90722 1.43929,3.8233 4.43569,16.876 -3.35057,12.2021 -5.21316,-9.5452 -6.12533,-20.8819 -6.57248,-31.5937 C 5.11969,85.67272 12.70256,68.81839 25.19344,57.37949 35.53782,47.93673 48.7257,40.78301 62.795168,39.48113 74.609047,39.1576 86.897445,38.70067 97.842337,43.9671 c 22.000543,8.94199 39.059193,31.01967 39.851563,55.10471 0.51071,10.46627 -5.43284,21.52227 -15.92006,24.44807 -10.54321,3.9458 -23.30751,-0.059 -29.127305,-9.922 -4.945771,-6.7432 -2.174267,-16.33399 -8.232304,-22.59857 -8.590395,-9.55846 -27.458196,-4.57409 -29.106281,8.5859 -2.01792,18.46287 9.125431,36.62547 24.282031,46.46487 5.982403,4.6271 17.390955,8.6067 16.907227,10.9969 -0.6648,3.2849 -3.680595,3.6504 -6.994236,1.9767 z m -42.123062,-5.2805 c -15.2815,-17.081 -25.23489,-41.7329 -18.4541,-64.57323 5.87538,-19.84151 27.0791,-32.47836 47.270445,-30.23245 19.108391,1.17444 36.205405,15.76718 40.357025,34.49773 2.78562,4.57587 -0.76771,16.92885 -5.9848,9.16345 C 109.20918,91.00859 104.35232,79.05837 94.075249,72.66408 76.44227,60.64401 49.10993,65.77333 38.68427,84.986 c -7.89937,14.72025 -4.14476,32.80418 2.74055,47.16468 3.82794,8.3611 5.67735,9.9565 11.01031,18.8747 2.38874,3.9946 -2.26257,6.7815 -5.05522,2.7178 z m 52.563818,-10.9951 c -18.056759,-4.6103 -31.726207,-27.1129 -31.347697,-41.54286 0.03257,-1.24204 2.111755,-2.82694 3.868801,-2.16732 1.619734,0.60807 2.751889,3.1419 2.88357,4.51178 0.761326,7.9204 10.575747,25.7468 23.104008,30.8085 7.97128,3.0307 16.64858,1.0338 24.8128,2.7518 4.3993,8.6199 -11.60142,6.5125 -16.48648,6.4708 -2.2893,-0.1501 -4.59097,-0.331 -6.835002,-0.8327 z M 0,58.92919 C 1.33901,51.03867 9.40371,45.21374 15.01599,39.6877 30.01271,27.86743 48.73103,19.27917 68.152301,20.2073 c 11.627603,-0.18859 23.59477,-0.42203 34.478809,4.38721 16.44028,6.10064 40.22155,24.31422 41.34668,31.76932 0.18779,2.05331 -0.85261,3.219 -1.71922,3.67561 -3.25682,1.71599 -9.98832,-6.5573 -12.62889,-9.43629 C 116.26539,36.3937 97.306788,27.98717 77.850565,27.43706 63.719938,26.4784 49.20496,28.31614 36.59077,35.12022 25.22849,40.59145 14.75134,48.45408 7.37771,58.7924 5.63531,60.94988 1.1246,62.63857 0,58.92919 Z M 22.05578,17.03575 C 22.10148,9.27966 33.24806,8.53115 38.85732,5.42124 51.4473,0.44632 65.060984,-0.46218 78.449633,0.18253 93.11412,0.4447 107.62572,4.922 120.28156,12.21013 c 6.58749,6.5808 -5.24727,7.06985 -8.96141,3.59456 C 86.377409,4.18333 56.52227,4.87989 31.6266,16.24249 c -2.64056,0.58847 -7.6843,4.15976 -9.57082,0.79326 z" />
  </symbol>
  <symbol id="github" viewBox="0 0 100 100">
    <path style="stroke: none;"
      d="M 30.770238,98.700652 C 13.342712,91.336557 0.54181688,73.314813 0.11383414,53.919219 -1.1941814,35.124739 8.8774646,16.275728 24.794255,6.877139 c 18.315958,-11.1922063 43.606376,-8.5340294 59.071538,6.592963 11.037921,10.31255 17.153347,25.85646 15.994545,41.11456 -0.770026,20.276689 -15.102134,39.185812 -33.991627,45.279858 -5.794182,0.21483 -2.437849,-8.382886 -3.347161,-12.143784 0.05537,-4.733787 -0.02872,-9.835642 -3.100952,-13.681429 7.561478,-1.180014 15.931125,-3.852155 19.565386,-11.409003 4.023583,-8.465582 4.423775,-19.595663 -1.581641,-27.230835 -0.127862,-4.080908 1.031134,-8.578461 -0.594312,-12.655897 -0.610549,-2.732699 -4.669674,-0.741667 -6.543326,-0.488549 -2.989833,0.649842 -5.393223,3.462956 -8.165873,4.042374 -8.091323,-1.8617 -16.674974,-1.815042 -24.749291,0.123089 -4.049454,-2.811055 -8.638134,-5.38971 -13.693041,-5.00868 -1.744694,4.206032 -1.607127,8.930995 -0.810677,13.326378 -3.80402,5.252634 -5.625699,11.99107 -4.54347,18.508121 0.602254,7.946751 5.282852,15.716261 12.883664,18.377272 2.64797,1.491046 7.156651,1.613272 9.24761,2.678831 -2.294903,3.178813 -2.440301,8.78231 -7.71208,7.683114 -6.088235,1.116453 -8.907766,-4.9885 -12.504672,-8.58652 -1.467834,-2.483172 -10.111791,-2.986991 -5.279981,0.842722 4.686013,3.249479 5.339731,9.694113 9.831536,12.988032 3.808862,2.437863 8.417908,2.469619 12.697753,1.681516 -0.107943,3.314029 0.280895,6.686452 -0.342878,9.950762 -1.486318,2.283646 -4.479701,0.541304 -6.355057,-0.161386 z">
    </path>
  </symbol>
  <symbol id="telegram" viewBox="0 0 240 240">
    <circle cx="120" cy="120" r="120" style="fill: var(--svg-telegram-circle-fill-color, #1d93d2)" />
    <path style="fill: var(--svg-telegram-fill-path1, #c8daea)" d="M81.229,128.772l14.237,39.406s1.78,3.687,3.686,3.687,30.255-29.492,30.255-29.492l31.525-60.89L81.737,118.6Z" />
    <path style="fill: var(--svg-telegram-fill-path2, #a9c6d8)" d="M100.106,138.878l-2.733,29.046s-1.144,8.9,7.754,0,17.415-15.763,17.415-15.763" />
    <path style="fill: var(--svg-telegram-fill-path3, #fff)" d="M81.486,130.178,52.2,120.636s-3.5-1.42-2.373-4.64c.232-.664.7-1.229,2.1-2.2,6.489-4.523,120.106-45.36,120.106-45.36s3.208-1.081,5.1-.362a2.766,2.766,0,0,1,1.885,2.055,9.357,9.357,0,0,1,.254,2.585c-.009.752-.1,1.449-.169,2.542-.692,11.165-21.4,94.493-21.4,94.493s-1.239,4.876-5.678,5.043A8.13,8.13,0,0,1,146.1,172.5c-8.711-7.493-38.819-27.727-45.472-32.177a1.27,1.27,0,0,1-.546-.9c-.093-.469.417-1.05.417-1.05s52.426-46.6,53.821-51.492c.108-.379-.3-.566-.848-.4-3.482,1.281-63.844,39.4-70.506,43.607A3.21,3.21,0,0,1,81.486,130.178Z" />
  </symbol>
  <symbol id="location" viewBox="0 0 50 50">
    <path
      d="M28.292 1.326C27.226 1.116 26.127 1 25 1c-4.71 0-8.98 1.93-12.06 5.04l6.92 5.592L28.292 1.326zM18.595 13.178L11.62 7.55C9.35 10.43 8 14.07 8 18c0 2.281.452 4.487 1.304 6.534L18.595 13.178zM22.608 11.432C23.353 11.159 24.154 11 25 11c3.87 0 7 3.13 7 7 0 .338-.032.667-.078.992l7.772-9.499c-2.058-3.539-5.348-6.268-9.285-7.595L22.608 11.432zM27.341 24.591C26.608 24.851 25.822 25 25 25c-3.87 0-7-3.13-7-7 0-.354.034-.7.084-1.039l-7.803 9.537c.386.666.809 1.315 1.289 1.932.37.5.87 1.14 1.45 1.89 1.267 1.633 2.959 3.816 4.59 6.164L27.341 24.591zM18.778 38.215c2.082 3.184 3.852 6.497 4.172 9.055.14.99.99 1.73 1.99 1.73 1.02 0 1.87-.75 1.99-1.75.61-4.83 6.57-12.48 9.78-16.6.56-.72 1.05-1.35 1.5-1.94C40.65 25.69 42 21.89 42 18c0-2.322-.471-4.536-1.319-6.555L18.778 38.215z" />
  </symbol>
  <symbol id="fallout-boy" viewBox="0 0 100 72">
    <path
      d="m46.689 0c-1.6423 0.49371-2.0457 2.742-3.6997 3.1181-1.5161-0.32413-3.1974-0.83325-4.3783 0.58336-1.2028 1.0415-2.4535 2.5592-4.2451 2.1138-1.2425 0.23696-1.5745-2.1919-2.4389-0.44038-0.64404 1.5482-0.04706 3.5922 1.1006 4.7649 1.5054 1.1571 2.9555-0.85464 3.9999-1.7619 0.98658-1.0422 2.3908-2.7042 3.9133-1.5206 1.554 1.4667 3.0934-0.40402 4.5965-0.89564 1.7043-0.44371 2.6499 1.5311 3.6765 2.5332 1.1414 1.7308 2.8493-0.36495 4.4067 0.027831 1.6873-0.18805 2.9891 1.4782 2.8385 3.0693-0.05515 1.4023-3.0125 2.2599-1.1572 3.3991 1.1442 0.92814 1.1903 2.4634 1.72 3.737 0.29048 0.40464 0.93231-1.0008 1.0828-1.4992 0.6354-2.1043 1.0541-4.4552 0.43305-6.5897-0.67529-1.9001-2.0017-3.4087-3.2803-4.9159-0.92432-1.3055-1.8302-2.8901-3.546-3.2104-1.7176-0.23734-2.8854-1.5743-4.3475-2.3422-0.21399-0.090149-0.44026-0.16826-0.67519-0.17082zm28.442 3.0617c-0.01315-1.954e-4 -0.02321 0.00272-0.02997 0.00953-0.20875 0.20971 0.37718 0.95513 2.5922 3.2966 0.69883 0.73872 1.6534 1.7979 2.1212 2.3537 0.86994 1.0337 1.4487 1.2853 1.6635 0.72291 0.15661-0.41002-5.7981-6.3742-6.3469-6.3827zm7.3314 0.86399c-0.0343-0.00131-0.08878 0.038477-0.16889 0.11896-0.16023 0.16097 0.08538 0.72248 0.9344 2.1375 0.63339 1.0556 1.2092 2.0731 1.2798 2.261 0.0826 0.21981 0.33468 0.34163 0.70631 0.34163 0.78161 0 0.87659-0.24473 0.32677-0.84073-0.25335-0.27463-0.87955-1.0542-1.3914-1.7326-0.51182-0.67836-1.0896-1.3906-1.2843-1.5827-0.19472-0.19208-0.3541-0.45108-0.3541-0.57574 0-0.083551-0.01425-0.12604-0.04855-0.12735zm-42.722 3.6939c-1.8304-8.116e-4 -2.3044 2.3594-3.8253 3.0076-1.5976 0.54239-2.5503 1.9447-3.2196 3.5074-1.6397 3.6207-2.4963 7.8225-1.3329 11.715 0.89486 3.1658 2.5709 6.2764 5.3878 8.1088 1.8554 1.3588 4.1067 1.933 6.3253 2.3285 1.3056 1.2831 3.2162 0.07746 4.5536-0.56735 0.76777-0.26315 2.7631-2.8393 0.7583-1.924-1.1495 0.59431-1.5152-0.50416-0.32792-0.92538 1.8344-1.1953 3.4868-3.7004 4.8447-5.3902 1.1826-0.12665 1.922-0.22136 3.1118-1.6445 0.59473-1.3181 0.07235-2.9947-1.1481-3.5257 0.62073-0.81301 1.1502-1.8882 1.1815-3.0068 0.0306-1.0956 0.0089-1.0904-0.13397-1.5911-0.26344-0.92341-0.9028-1.6585-1.4775-1.9811-1.9707-1.1065 0.81585-3.3595 0.5063-4.5643-0.32831-2.3317-2.9556-1.3526-4.4978-1.2823-0.5406-0.038913-1.2497 0.37682-1.5849-0.21695-0.98138-0.99966-2.2423-2.3948-3.7798-1.8546-1.7783 0.56088-3.4935 0.34796-5.2072-0.18874-0.04553-0.00281-0.09043-0.00421-0.13435-0.00421zm-7.6111 2.9515c-1.467 0.02069-0.57132 4.006 0.47062 1.7139 0.60961-0.60385 0.52292-1.6385-0.45316-1.7139-0.0058-4.1e-5 -0.0117-8.1e-5 -0.01745 0zm4.1509 0.87047c1.4276 0.87561-1.3557 1.3075-1.758 1.2213 0.39161-0.74576 0.84402-1.2087 1.758-1.2213zm10.081 0.24898c1.022-0.0086 2.7351 2.0856 1.6088 2.3266-0.5711-0.62984-2.3726-1.4464-2.0855-2.2557l0.30704-0.04765c0.05381-0.01535 0.11053-0.02275 0.16965-0.02326zm37.487 1.8031c-0.19363-0.0023-0.31188 0.03918-0.39661 0.1243-0.34056 0.34212-0.51905 3.4076-0.74653 12.834-0.11401 4.7243-0.28825 10.259-0.3875 12.299-0.09924 2.04-0.18346 5.1872-0.18787 6.9939l-0.0076 3.2851 0.55373 0.55629c0.33788 0.33944 0.84917 0.60185 1.3117 0.67335 0.41687 0.06447 1.4138 0.24474 2.2153 0.40035 0.80157 0.15562 1.7197 0.32291 2.0404 0.37175 0.32063 0.04882 1.3262 0.22076 2.2347 0.38243 0.90844 0.16167 2.2638 0.39764 3.012 0.52426 0.74813 0.12662 1.8412 0.34527 2.429 0.48614 0.58781 0.14086 1.6103 0.26258 2.2723 0.27033 1.0322 0.01208 1.2465-0.04765 1.506-0.41979 0.26831-0.38478 0.30252-2.3935 0.30252-17.751 0-16.328-0.019463-17.323-0.34006-17.41-0.44574-0.12052-2.6227-0.64355-4.2743-1.0268-0.72192-0.16752-1.7934-0.4185-2.3812-0.55782-0.58782-0.13932-1.7683-0.40316-2.6233-0.58641-0.855-0.18325-1.8369-0.41882-2.1819-0.5235s-1.0446-0.27001-1.5546-0.36756c-0.51001-0.09755-1.3864-0.28592-1.9478-0.41827-0.38561-0.090916-0.65463-0.13717-0.84825-0.13955zm-9.5577 0.67678c-0.09196 9.59e-4 -0.15482 0.0217-0.19357 0.06062-0.12715 0.12773-0.01792 0.23737 0.32146 0.32294 0.28265 0.07127 0.51389 0.19921 0.51389 0.28444 0 0.08522 0.24048 0.25047 0.53438 0.3668 0.29391 0.11632 0.70572 0.32254 0.91542 0.4583 0.48056 0.31112 1.8275 1.1421 2.3394 1.4435 0.57685 0.3397 0.81791 0.31066 0.92795-0.1121 0.09183-0.35278-0.3695-0.98714-0.7177-0.98714-0.08117 0-0.72986-0.27202-1.4418-0.60472-1.8593-0.86882-2.801-1.2367-3.1994-1.2327zm-38.734 1.0565c1.4389 0.33647 0.5428 4.2279-1.0187 2.8234-0.44902-0.90525-0.26259-2.7542 1.0187-2.8234zm5.0159 0.6417c0.61524 1.3665-1.3582 3.1328-1.9064 4.5411-0.45093 0.7853 1.5437 3.0108-0.33057 2.701-1.1759-0.96101-2.38-2.7014-0.597-3.7484 1.1928-0.94781 1.5703-2.7815 2.834-3.4937zm12.441 0.20093c0.04198-9.59e-4 0.08348 0.0092 0.12031 0.02936 0.70255 0.19823 1.1714 0.3446 1.5637 0.77553 0.52838 0.58041 0.66727 1.2344 0.84787 2.2004 0.04575 0.12413-0.01727 0.26203-0.14081 0.30808-0.12346 0.046-0.26067-0.01712-0.30666-0.14108-0.62556-1.6874-0.95899-2.05-2.1918-2.7224-0.11542-0.06298-0.1585-0.20782-0.0964-0.32409 0.0406-0.07558 0.11834-0.12358 0.20381-0.12583zm-7.476 0.17272c0.04548-1.58e-4 0.09101-2.6e-5 0.13663 0 1.1015 5.85e-4 2.7583 1.7456 1.5921 2.6103-0.98707-1.0428-2.8268-1.2818-3.5976-2.171 0.52356-0.40261 1.1866-0.43686 1.8688-0.43924zm6.9644 1.1431c0.02886-0.0019 0.05773 0.0033 0.08425 0.01488 0.5644 0.09166 0.98269 0.19764 1.342 0.51588 0.46244 0.40954 0.7027 0.96852 0.87254 1.6384 0.03861 0.09381-0.0055 0.20134-0.09868 0.24059-0.09349 0.03904-0.20079-0.0053-0.23986-0.09913-0.44768-1.0846-0.99569-1.503-2.024-1.9587-0.09182-0.04145-0.13329-0.14945-0.09298-0.24212 0.01948-0.04465 0.05578-0.07975 0.10096-0.09761 0.01786-0.0069 0.03667-0.01109 0.05579-0.01221zm18.972 0.25775c-0.12856 0.0029-0.22183 0.03221-0.27668 0.08732-0.23156 0.23263 0.52159 0.61029 2.5698 1.2891 0.80157 0.26566 1.9384 0.67223 2.5262 0.90364 0.58782 0.23142 1.3748 0.48947 1.7489 0.57307 0.37407 0.08359 0.73624 0.16192 0.80498 0.17425 0.2009 0.0361 0.3586-0.53671 0.23607-0.85751-0.06184-0.16198-0.34335-0.34301-0.62547-0.40226-0.59233-0.12435-0.59876-0.12602-3.4275-0.86742-1.1756-0.30813-2.4761-0.66047-2.8897-0.78278-0.2774-0.08203-0.50116-0.12127-0.66646-0.11744zm-19.275 0.80298c0.0262-8.11e-4 0.05223 0.0047 0.07591 0.01601 0.42727 0.06507 0.78348 0.13849 1.0703 0.38776 0.42138 0.36625 0.63084 0.83955 0.78715 1.4813 0.03845 0.08358 0.0018 0.18265-0.0816 0.22076-0.08372 0.03839-0.18253 5.87e-4 -0.21975-0.08389-0.44791-0.99618-0.84783-1.2974-1.6995-1.7062-0.08177-0.03954-0.1165-0.13792-0.0778-0.22038 0.01874-0.04005 0.05262-0.07094 0.09412-0.08579 0.01648-6e-3 0.03376-0.0092 0.05123-0.0096zm-41.654 0.10752c-0.36935-6e-3 -0.76117 0.01337-1.1583 0.06062-0.8766 0.1043-1.103 0.23442-1.9223 1.1065-0.51078 0.54367-0.97892 1.2263-1.0407 1.5171-0.061759 0.2908-0.1939 0.7306-0.29338 0.97723-0.23453 0.58156-0.23276 2.0967 0.00301 2.5313 0.37682 0.69451 1.2453 3.0957 1.3576 3.7534 0.081675 0.47854 0.23116 0.69878 0.50212 0.74083 0.87025 0.13514 2.9128 1.3305 3.8048 2.2267 0.875 0.87904 0.95632 1.0402 0.99475 1.9728 0.07245 1.758-0.01318 2.5149-0.32374 2.8596-0.37856 0.42024-0.3845 0.99621-0.01556 1.4862 0.18696 0.24832 0.28744 0.85694 0.29148 1.7657 0.0054 1.2134-0.05466 1.4529-0.47973 1.9137-0.50054 0.54259-0.63318 1.1727-0.29148 1.3848 0.48404 0.30053 0.0132 2.0574-0.7139 2.6636-0.22495 0.18756-0.94515 0.26461-2.4738 0.26461-2.12 0-2.8102-0.16848-3.6925-0.90136-0.11689-0.097108-0.45299-0.3578-0.7469-0.57917-0.29391-0.22136-0.53438-0.53045-0.53438-0.68707 0-0.54287 0.53589-0.48669 1.4802 0.15556 0.90318 0.6143 1.0481 0.64851 3.0101 0.71071 1.9623 0.06221 2.0858 0.04269 2.5747-0.41255 0.63612-0.59226 0.64006-0.81552 0.02922-1.6201-1.0209-1.3447-3.5958-2.0972-6.8486-2.0014l-2.1834 0.06444-0.70821 0.71186c-0.64296 0.64639-0.69569 0.77938-0.57195 1.442 0.25306 1.3552 2.9646 3.5741 4.4219 3.6188 0.24633 0.0075 0.62273 0.08921 0.83649 0.18149 0.53278 0.23003 3.3277 0.23797 3.7433 0.01068 0.18558-0.1015 0.66532-0.23718 1.0661-0.3016 0.40078-0.06442 0.7287-0.19167 0.7287-0.28253 0-0.09086 0.20911-0.21766 0.46493-0.28215 1.3251-0.33413 4.2276-4.6105 3.1292-4.6105-0.16464 0-0.39686-0.21508-0.51616-0.47813-0.19486-0.42964-0.12787-0.5776 0.65735-1.455 1.6-1.7878 2.1737-4.3846 1.3341-6.0372-0.23606-0.46464-1.4076-1.8702-2.6036-3.1235-1.6887-1.7696-2.2507-2.4966-2.5155-3.2546-0.55455-1.5873-0.57865-1.4775 1.3162-5.9377 0.40743-0.95903 0.42212-1.0985 0.15978-1.5007-0.25617-0.39277-1.1638-0.6371-2.2719-0.65505zm41.392 1.01c0.36263-0.0037 0.58231 0.04095 0.81599 0.17882 0.44262 0.26115 0.72574 0.69533 0.84863 1.1652 0.01976 0.07556 0.04833 0.17483-0.02163 0.23335-0.07047 0.05799-0.17436 0.04776-0.23227-0.02289-0.52308-0.63527-0.75582-0.88072-1.6054-1.2262-0.08428-0.03473-0.12468-0.13143-0.09033-0.21619 0.02408-0.06039 0.08105-0.10108 0.14574-0.10409 0.02372-0.0012 0 1.6e-5 0.13929-8e-3zm-0.20912 0.98104c0.22235-0.01 0.45156 0.03598 0.65014 0.15328 0.23738 0.14022 0.41329 0.4061 0.58524 0.70271 0.05873 0.06968 0.05042 0.17394-0.0186 0.23334-0.06999 0.05967-0.17497 0.0506-0.23379-0.02021-0.33471-0.39803-0.7145-0.58324-1.1564-0.76524-0.08427-0.03472-0.12468-0.13143-0.09033-0.21619 0.10051-0.0856 0.17125-0.08356 0.26378-0.0877zm15.631 1.0912c-0.66394 5e-3 -1.0841 0.06311-1.1963 0.17577-0.15205 0.15275 0.16197 0.24828 1.1215 0.34125 0.73303 0.07102 1.5742 0.2066 1.8692 0.30121 0.29498 0.09462 1.082 0.22792 1.7489 0.29588 0.66691 0.06798 1.4749 0.20077 1.7956 0.29549 0.32063 0.09471 1.2388 0.26263 2.0404 0.3729 0.80156 0.11027 1.8072 0.27872 2.2347 0.37442 1.2379 0.27708 1.4587 0.24732 1.6384-0.22038 0.27538-0.71671-0.14041-0.91081-2.4218-1.1309-1.1723-0.1131-3.2245-0.33496-4.5604-0.493-1.8089-0.21399-3.2997-0.32003-4.2701-0.31265zm-22.86 1.7318c1.2243 0.66142 3.1891 1.7854 2.3493 3.4674-0.03175 0.73458-0.9224 1.9609-0.9678 0.49148-1.2747-0.98239-2.6917 1.0812-4.135 1.0943-1.2735 0.54393-2.8376 1.2534-4.1543 0.43276-1.4353-0.20142-2.7301-2.1901-4.0519-1.4706-1.4353-0.40563-1.2781-4.0453 0.44633-3.0285 0.96078 0.98953 2.409 1.2613 3.6974 1.4218 1.5806 0.12509 3.0913-0.30931 4.6041-0.62836 1.1952-0.13123 1.9087-0.76932 2.2119-1.7802zm-0.06148 2.0143c-0.06169-3.91e-4 -0.12383 0.0076-0.18483 0.02555-1.8423 0.15523-3.5495 1.0997-5.4345 0.92919-1.453 0.23698-2.6472-0.62588-4.0428-0.56468-2.1013 0.28908 0.88194 1.1322 1.5306 1.4752 2.7366 1.4101 5.9236 0.3402 8.4579-1.0047 0.63656-0.30014 0.17595-0.85784-0.3264-0.86056zm33.303 3.9005c-0.35464 0-0.89087 0.09742-1.1917 0.21657-0.50425 0.19969-1.3804 0.42736-3.8018 0.98791-0.943 0.2183-1.1914 0.47059-0.58296 0.59175 0.47298 0.0942 3.1352-0.211 3.8181-0.43772 0.30986-0.10286 0.98247-0.18721 1.4946-0.18721 1.0251 0 1.1833-0.11594 1.019-0.74694-0.08539-0.32807-0.25672-0.42437-0.75527-0.42437zm-38.774 0.3973c0.89053-0.0053 1.7014 0.59063 0.482 0.98714-0.94613 0.74312-3.358-0.79203-1.2225-0.94978l0.25429-0.01792 0.25922-0.0046c0.07542-0.0096 0.15149-0.01443 0.22696-0.01487zm-35.256 0.18836c-2.029 0-2.7535 0.34468-3.3042 1.5717-0.32691 0.72831-0.33284 0.86585-0.070593 1.5884l0.28693 0.79078 3.0032 0.02631c1.9255 0.01685 3.1427 0.10949 3.3919 0.25813 0.21375 0.12751 0.89066 0.38058 1.5045 0.56239 0.6138 0.18181 1.2696 0.44781 1.4574 0.59099 0.5052 0.38522 1.3686 0.32712 1.8514-0.12468 0.68877-0.64464 0.58285-1.7687-0.24783-2.6297-1.4584-1.5116-4.8135-2.6343-7.8726-2.6343zm48.133 2.9694c-0.27801-0.0033-0.58404 0.19144-0.89607 0.67334-1.2259 3.438-5.1746 5.031-8.5801 4.9148-2.0414-0.0078-3.7828-1.2485-4.8815-2.8939-1.4692-0.34749-3.9666-4.1745-4.5263-1.2247-0.80855-0.77466-2.665 0.82861-3.7892 1.4321-1.6864 1.3167-3.8769 1.3348-5.907 1.2392-1.6427 0.49903-3.7066-2.4441-4.6291-1.3421-0.05159 2.8577-0.03811 5.7533-0.90632 8.5122-0.01287 1.7237-2.2619 3.4775-1.7223 4.7817 4.0709 0.78211 8.5237 0.5725 12.271-1.3372 1.5588-0.2614 2.9056-2.9937 4.357-1.5705-1.0404 1.0926-2.2342 2.0195-3.4211 2.9271-0.3467 2.0729 0.45986 4.1743 0.50516 6.2694 0.50225 1.9386-0.50183 4.9702 1.8221 5.8634 2.1644 1.2789 4.5889 2.0126 7.095 2.1779 2.1682 0.28176 5.9384 0.78071 5.5723-2.5561-0.65028-1.7556-0.43779-3.7598-0.57613-5.6278 0.02612-2.0563-0.73741-4.0192-0.54994-6.0986 0.2089-2.5439 0.72315 1.0918 0.57119 1.927 0.43317 2.0813 0.64581 4.22 0.66266 6.3598-0.03295 2.3124 1.1191 5.5037-0.59055 7.334-2.834 0.45416-5.7501-0.03018-8.514-0.70461-1.7453-0.19836-3.4687-1.9288-4.9423-1.8622-0.46067 2.2459-0.6196 4.5584-0.61143 6.8517 2.6399 1.7476 5.6898 2.7802 8.8416 3.0266 5.2955 0.50783 10.515-1.2003 15.2-3.5093 1.8737-1.058 0.7008-3.7855 1.0054-5.5728 0.71079-3.1722-2.5335 0.63014-3.1175-1.5297-0.22171-2.2747-0.5028-4.6189-0.1742-6.8883 0.57747 0.30877 0.22478 3.4207 0.51464 4.6345-0.03327 2.4423 2.023 1.0709 3.2101 0.22991 0.11671-1.3242 0.17568-2.6528 0.26036-3.9795 1.5984-0.23051 2.1832-1.7139 1.6821-3.3728-0.07588-2.0383 0.81526 0.21554 0.49757 1.0497-0.62734 1.3991 0.50584 1.6816 1.6392 0.96579 3.2216 0.07399 0.45752-2.1772 0.76286-3.8449-0.20106-1.7618 1.0466-3.0964 2.2013-4.2322 0.8735-0.48152 0.16487-1.3249 0.01747-2.0399-1.0096-3.9375-3.9612-6.9584-7.1238-9.3068-2.2576-1.7656-1.2167 1.9152-1.6927 3.0693-0.57274 2.0978-2.3915 3.3531-4.1221 4.432-0.7467 1.9902-0.92049 0.13039-1.0995-0.86742 1.9351-1.1061 4.0799-2.4212 4.5787-4.7779 0.73376-0.9848 0.0991-3.5204-0.8938-3.5322zm-34.11 1.9949c-0.19812 0.01128-0.31956 0.52752-0.31956 1.3989 0 0.47584-0.08436 1.0177-0.18749 1.2041-0.57715 1.0434-0.9793 2.2733-0.98488 3.0125-0.01683 2.2292-2.078 5.5703-3.971 6.4368-0.2524 0.11553-0.50024 0.36855-0.5507 0.56239-0.07055 0.27105 0.07128 0.39671 0.61484 0.54371 0.38875 0.10514 0.96707 0.14434 1.2847 0.08693 1.3155-0.23776 2.873-2.6076 3.5004-5.3254 0.1859-0.80527 0.45941-1.9532 0.60763-2.5508 0.29846-1.2033 0.36917-5.1729 0.09526-5.3429-0.0313-0.01944-0.06088-0.02792-0.08919-0.0263zm-14.545 0.30655c-1.7583 0-1.761 5.86e-4 -2.3986 0.67983-0.8706 0.92737-1.0102 1.6732-0.47593 2.5416 0.23102 0.37552 0.4785 0.68608 0.54994 0.6905 0.07144 0.0041 1.2666 0.03483 2.656 0.06826 2.8145 0.06777 5.1107 0.50022 6.375 1.2007 0.44822 0.24832 0.9616 0.45796 1.1409 0.46593 0.50305 0.02238 1.1314-0.92444 1.1314-1.7047 0-0.56323-0.1608-0.84498-0.87292-1.5305-0.48011-0.46216-1.222-1.0191-1.6483-1.2377-1.1218-0.57493-4.4165-1.174-6.4573-1.174zm75.575 1.291c-0.27943-0.0035-0.79581 0.35194-1.5629 1.071-1.1062 1.0369-0.8837 1.3115 0.408 0.50329 0.39866-0.24942 0.87793-0.51027 1.065-0.57955 0.19656-0.07283 0.34006-0.32697 0.34006-0.60205 0-0.25927-0.08245-0.39063-0.25011-0.39272zm-4.6534 6.2279c-0.13181 8.13e-4 -0.2454 0.03057-0.33968 0.08998-0.24212 0.15258-0.20679 0.2685 0.22203 0.72749 0.62462 0.66858 1.7178 2.7117 1.7178 3.2108 0 0.45676 0.61832 1.0057 1.3151 1.1675 0.292 0.06783 0.55836 0.13372 0.59207 0.14641 0.03371 0.01271 0.23049-0.06767 0.43722-0.17882 0.82112-0.44147 0.36894-1.9985-0.94427-3.2504-1.3112-1.25-2.3651-1.9168-3.0002-1.9129zm-3.1531 0.11172c-0.16204-5e-6 -0.32469 0.02647-0.48921 0.07892-0.54308 0.17316-0.50134 0.35727 0.34575 1.5228 0.76969 1.0591 1.399 2.4949 1.399 3.1929 0 0.60163 0.7153 1.4069 1.421 1.5995 1.6744 0.45691 1.7157-1.2522 0.09451-3.912-1.0384-1.7036-1.8959-2.4821-2.771-2.4822zm-4.0686 8e-3c-0.64422 8.13e-4 -1.2519 0.42221-2.0848 1.3829-0.57421 0.66238-1.4742 1.6339-1.9998 2.1584-1.3707 1.3682-1.7479 2.1442-1.742 3.5845 0.0043 1.0529 0.08095 1.2934 0.63875 2.001 0.58759 0.74533 0.70361 0.80413 1.5826 0.80413 0.77681 0 1.0689-0.10602 1.6126-0.58565 0.56506-0.49842 0.82237-0.58565 1.7291-0.58565 1.6015 0 2.614-0.96716 1.9572-1.8698-0.21164-0.29087-0.52529-0.37882-1.3978-0.39196-0.6187-0.0094-1.2283-0.08152-1.3549-0.16014-0.35504-0.22044-0.06567-0.50571 0.51616-0.5094 0.65595-0.0037 1.1005-0.27507 0.92302-0.56354-0.07444-0.121-0.44806-0.35156-0.83042-0.51206-0.64326-0.27001-0.67243-0.31711-0.39054-0.63141 0.16756-0.18683 0.33349-0.64719 0.36853-1.023 0.05267-0.56425 0.14919-0.69339 0.55374-0.74083 0.44792-0.05253 0.53113 0.06411 0.9716 1.3616 0.31863 0.93855 0.71189 1.653 1.1617 2.1104 0.37406 0.38032 0.83524 0.93195 1.0247 1.2254s0.46761 0.53342 0.61826 0.53342c0.98199 0 0.32209-3.4532-0.99209-5.1916-0.25118-0.33224-0.45658-0.68604-0.45658-0.78621 0-0.26453-1.1735-1.258-1.7432-1.4756-0.23252-0.08881-0.45134-0.13524-0.66608-0.13498zm11.749 6.4227c-0.4273 0.0073-0.7162 0.37291-0.52527 0.87276 0.15425 0.40381 0.43914 0.36678 0.92416-0.12049 0.33227-0.3338 0.36035-0.4464 0.14574-0.58298-0.18915-0.12038-0.37742-0.17214-0.54463-0.16929zm-2.1834 0.69165c-0.04135 8.12e-4 -0.08547 7e-3 -0.13132 0.01908-0.37309 0.09801-0.67844 0.71394-0.46189 0.93148 0.2193 0.22032 0.8365 0.10034 0.94503-0.18378 0.16232-0.42495-0.01491-0.77344-0.35182-0.76676zm-2.2924 0.66916c-0.32329 0.0092-0.76863 0.59259-0.6619 0.87199 0.1056 0.27649 0.89505 0.14 0.86457-0.14946-0.0078-0.07522-0.01439-0.26865-0.01439-0.42971 0-0.16105-0.08141-0.29283-0.18066-0.29283-0.0022 0-0.0051-7.3e-5 -0.0076 0zm-2.3929 0.90174c-0.04739 3.91e-4 -0.09904 0.0071-0.15485 0.02174-0.45113 0.11852-0.63577 0.36918-0.47024 0.63827 0.15004 0.2439 0.22692 0.24347 0.68543-3e-3 0.41864-0.22508 0.32555-0.65935-0.06034-0.65695zm9.5027 0.52998c-1.3092-0.0034-2.3086 0.24335-3.9096 0.71605-2.0358 0.60107-3.3877 0.98593-4.4694 1.272-0.53438 0.14131-1.4525 0.40133-2.0404 0.57802-0.58782 0.1767-1.506 0.43893-2.0404 0.5826-0.53438 0.14367-1.4525 0.40493-2.0404 0.58031-1.3735 0.4098-2.9977 0.85756-3.9836 1.0985-0.4275 0.10448-0.95217 0.26898-1.1659 0.36527-0.37091 0.16708-1.2119 0.40149-2.9148 0.81252-0.91541 0.22094-1.6517 1.1435-1.6517 2.0696 0 0.96107 0.677 1.2656 3.1972 1.439 3.1057 0.21362 6.8278 0.54806 9.7312 0.8739 1.3928 0.15631 3.0542 0.28566 3.6921 0.28787 0.63785 0.0022 1.772 0.09315 2.5201 0.20208 0.74814 0.10893 2.4533 0.27625 3.7892 0.37213 1.336 0.09588 3.4346 0.26987 4.6637 0.38624 1.2291 0.11638 3.7212 0.34219 5.5381 0.50215 1.8169 0.15997 4.0467 0.36558 4.9552 0.45678 3.1384 0.31506 3.7718 0.27814 4.3437-0.25432l0.51426-0.47889v-3.7282c0-4.1835-0.1194-4.6801-1.238-5.1496-0.35518-0.14909-1.1183-0.33065-1.6958-0.4034-0.57743-0.07275-1.6182-0.25209-2.3129-0.39844-0.6947-0.14635-2.1375-0.41117-3.2063-0.5887-1.0688-0.17752-2.5553-0.43893-3.3034-0.5807-3.6068-0.68344-5.4886-1.0088-6.9724-1.0127zm-12.174 0.19026c-0.24321 0.0055-0.38257 0.19282-0.38257 0.53685 0 0.4861 0.50911 0.49146 0.76665 8e-3 0.15156-0.28449 0.1265-0.39811-0.10779-0.48843-0.10286-0.03965-0.19523-0.05822-0.2763-0.05643zm-2.2077 0.72063c-0.37704 0-0.50667 0.09984-0.50667 0.39043 0 0.26029 0.12954 0.39044 0.38864 0.39044 0.21375 0 0.38864-0.03666 0.38864-0.0816 0-0.04491 0.05318-0.22059 0.11803-0.39043 0.08897-0.23291-0.0065-0.30884-0.38864-0.30884zm-2.5174 0.86399c-0.06618 0.0023-0.14582 0.04693-0.25049 0.13421-0.22678 0.18908-0.23347 0.2675-0.03302 0.39196 0.30931 0.19204 0.63893-0.10386 0.45278-0.40645-0.05038-0.0819-0.10309-0.12202-0.16927-0.11972zm-2.3584 0.73855c-0.07652 3.89e-4 -0.15563 0.01392-0.22734 0.04156-0.28118 0.10839-0.29639 0.16568-0.07932 0.30045 0.3598 0.22339 0.88177 0.02224 0.62129-0.23945-0.0668-0.06709-0.1871-0.10306-0.31463-0.10257zm-2.4374 0.62111c-0.3 0.0068-0.57379 0.16275-0.46796 0.33477 0.05913 0.09612 0.27214 0.17463 0.47328 0.17463 0.47009 0 0.66866-0.31551 0.29034-0.46135-0.09276-0.03576-0.19565-0.0503-0.29565-0.04804zm-2.2544 0.58642c-0.26644 0.0063-0.64451 0.25124-0.71618 0.52655-0.06986 0.2684 0.0048 0.37252 0.26681 0.37252 0.35672 0 0.85024-0.63094 0.65052-0.83158-0.04869-0.04892-0.11959-0.06938-0.20115-0.0675z" />
  </symbol>
  <symbol id="typescript" viewBox="0 0 512 512">
    <rect fill="#3178c6" height="512" rx="50" width="512" />
    <rect fill="#3178c6" height="512" rx="50" width="512" />
    <path clip-rule="evenodd"
      d="m316.939 407.424v50.061c8.138 4.172 17.763 7.3 28.875 9.386s22.823 3.129 35.135 3.129c11.999 0 23.397-1.147 34.196-3.442 10.799-2.294 20.268-6.075 28.406-11.342 8.138-5.266 14.581-12.15 19.328-20.65s7.121-19.007 7.121-31.522c0-9.074-1.356-17.026-4.069-23.857s-6.625-12.906-11.738-18.225c-5.112-5.319-11.242-10.091-18.389-14.315s-15.207-8.213-24.18-11.967c-6.573-2.712-12.468-5.345-17.685-7.9-5.217-2.556-9.651-5.163-13.303-7.822-3.652-2.66-6.469-5.476-8.451-8.448-1.982-2.973-2.974-6.336-2.974-10.091 0-3.441.887-6.544 2.661-9.308s4.278-5.136 7.512-7.118c3.235-1.981 7.199-3.52 11.894-4.615 4.696-1.095 9.912-1.642 15.651-1.642 4.173 0 8.581.313 13.224.938 4.643.626 9.312 1.591 14.008 2.894 4.695 1.304 9.259 2.947 13.694 4.928 4.434 1.982 8.529 4.276 12.285 6.884v-46.776c-7.616-2.92-15.937-5.084-24.962-6.492s-19.381-2.112-31.066-2.112c-11.895 0-23.163 1.278-33.805 3.833s-20.006 6.544-28.093 11.967c-8.086 5.424-14.476 12.333-19.171 20.729-4.695 8.395-7.043 18.433-7.043 30.114 0 14.914 4.304 27.638 12.912 38.172 8.607 10.533 21.675 19.45 39.204 26.751 6.886 2.816 13.303 5.579 19.25 8.291s11.086 5.528 15.415 8.448c4.33 2.92 7.747 6.101 10.252 9.543 2.504 3.441 3.756 7.352 3.756 11.733 0 3.233-.783 6.231-2.348 8.995s-3.939 5.162-7.121 7.196-7.147 3.624-11.894 4.771c-4.748 1.148-10.303 1.721-16.668 1.721-10.851 0-21.597-1.903-32.24-5.71-10.642-3.806-20.502-9.516-29.579-17.13zm-84.159-123.342h64.22v-41.082h-179v41.082h63.906v182.918h50.874z"
      fill="#fff" fill-rule="evenodd" />
  </symbol>
</svg>